<svg id="svg" version="1.1" xmlns="http://www.w3.org/2000/svg" xmlns:xlink="http://www.w3.org/1999/xlink" width="400" height="200" viewBox="0, 0, 400,200"><g id="svgg"><path id="path0" d="M175.024 24.580 C 170.408 30.142,146.261 31.724,109.375 28.882 C 51.814 24.445,36.403 26.113,19.826 38.575 C -2.094 55.053,0.120 86.589,23.404 89.539 C 31.439 90.558,41.859 86.416,46.042 80.542 C 48.189 77.527,48.120 77.344,44.844 77.344 C 42.667 77.344,41.408 76.721,39.278 74.591 L 36.525 71.837 36.864 65.379 C 37.760 48.308,50.502 38.698,70.313 40.152 C 76.983 40.642,89.395 43.041,90.386 44.032 C 91.401 45.047,72.889 80.686,65.982 91.016 C 45.410 121.780,23.691 136.140,3.711 132.186 C -1.012 131.251,-1.031 131.871,3.536 137.906 C 9.934 146.360,15.164 158.236,18.754 172.461 C 19.765 176.468,21.422 176.734,28.144 173.969 C 48.092 165.761,66.961 138.508,92.610 80.859 C 97.199 70.547,102.519 58.881,104.434 54.936 L 107.916 47.762 111.575 48.891 C 147.561 59.994,168.163 53.712,176.648 29.047 C 178.615 23.332,177.837 21.191,175.024 24.580 M236.612 30.197 C 225.994 32.044,219.611 41.416,199.358 84.900 C 182.042 122.078,177.225 131.250,175.270 130.759 C 174.238 130.500,173.438 130.650,173.438 131.102 C 173.438 131.544,171.592 133.928,169.336 136.401 C 155.666 151.385,145.257 147.015,151.991 129.119 C 155.932 118.649,169.932 94.977,173.502 92.747 C 176.407 90.933,174.883 90.625,163.010 90.625 L 151.019 90.625 150.954 92.913 C 150.875 95.684,147.823 102.734,147.717 100.391 C 147.606 97.949,144.901 94.404,141.644 92.432 C 122.709 80.970,86.341 119.504,87.682 149.609 C 88.842 175.667,111.284 178.438,125.446 154.272 C 126.572 152.352,127.547 150.780,127.613 150.779 C 127.680 150.779,127.616 153.284,127.471 156.348 C 126.572 175.361,140.282 176.278,161.032 158.594 L 165.158 155.078 161.762 161.328 C 159.894 164.766,158.066 167.912,157.699 168.320 C 155.510 170.754,156.991 171.094,169.775 171.094 L 182.518 171.094 183.952 164.774 L 185.387 158.455 187.650 162.673 C 195.089 176.536,220.511 171.244,234.501 152.922 C 237.042 149.594,237.183 149.525,239.457 150.494 C 240.744 151.043,243.396 151.508,245.352 151.527 L 248.906 151.563 249.868 156.222 C 254.668 179.459,283.947 175.324,305.881 148.312 C 307.956 145.757,308.505 145.495,311.040 145.848 L 313.878 146.243 314.394 151.051 C 317.289 178.036,347.243 178.162,368.405 151.278 L 372.962 145.488 377.492 145.899 C 388.314 146.880,401.082 135.718,394.845 130.728 C 391.935 128.399,391.136 128.441,389.780 130.991 C 388.233 133.903,383.015 137.500,380.340 137.500 L 378.103 137.500 380.022 134.570 C 382.960 130.085,386.061 119.854,386.524 113.115 C 388.871 78.962,344.559 83.748,322.774 119.999 C 320.476 123.824,318.790 126.250,319.028 125.391 C 325.202 103.090,318.802 90.241,301.563 90.326 C 281.082 90.427,259.183 109.049,251.827 132.617 C 249.843 138.974,249.781 139.063,247.248 139.063 L 244.681 139.063 248.541 132.641 C 268.751 99.014,247.460 78.170,215.164 99.966 C 212.401 101.830,211.869 102.002,212.749 100.747 C 213.369 99.862,216.346 97.614,219.365 95.753 C 238.957 83.674,250.689 70.462,256.297 54.160 C 261.586 38.787,252.289 27.470,236.612 30.197 M244.884 40.891 C 250.928 45.311,233.576 76.419,220.591 84.444 C 216.785 86.797,216.801 86.640,221.492 75.549 C 232.428 49.697,240.523 37.703,244.884 40.891 M296.484 100.170 C 283.204 109.709,278.918 125.987,287.257 135.217 C 289.971 138.221,290.013 138.361,288.658 139.860 C 283.895 145.122,271.921 147.807,267.771 144.544 C 258.381 137.157,276.765 105.842,293.984 99.892 C 299.147 98.108,299.327 98.128,296.484 100.170 M361.250 100.653 C 347.914 110.351,343.813 128.373,353.154 136.233 L 355.355 138.085 352.873 140.483 C 344.287 148.776,329.626 147.622,330.728 138.740 C 331.610 131.627,332.139 129.821,335.097 123.828 C 340.716 112.448,350.249 102.859,358.924 99.860 C 364.397 97.968,364.769 98.095,361.250 100.653 M139.844 103.628 C 148.223 111.687,125.166 145.199,111.177 145.295 C 100.990 145.365,107.721 123.804,122.666 108.496 C 130.468 100.504,135.201 99.163,139.844 103.628 M307.654 107.234 C 307.258 113.411,304.581 120.114,299.971 126.478 L 297.505 129.883 295.823 128.197 C 291.113 123.477,296.270 107.892,304.125 103.102 C 307.855 100.828,308.050 101.057,307.654 107.234 M372.963 102.798 C 374.499 106.800,371.895 115.616,366.705 123.986 C 362.184 131.278,359.374 130.230,359.376 121.252 C 359.377 113.171,370.925 97.487,372.963 102.798 M234.435 105.409 C 238.644 109.618,236.044 120.145,228.739 128.471 L 226.036 131.552 221.807 129.726 C 215.144 126.848,207.869 127.033,201.649 130.239 L 196.791 132.743 198.284 130.239 C 199.105 128.861,201.262 125.003,203.077 121.664 C 210.440 108.119,228.028 99.002,234.435 105.409 M316.348 134.614 C 315.890 136.275,315.063 137.500,314.401 137.500 C 313.465 137.500,313.555 136.901,314.882 134.299 C 316.827 130.488,317.451 130.622,316.348 134.614 M218.104 138.742 C 220.800 140.136,220.386 141.309,215.701 145.541 C 205.426 154.825,192.872 152.976,198.060 142.943 C 200.866 137.516,211.446 135.299,218.104 138.742 " stroke="none" fill="#000000" fill-rule="evenodd"></path></g></svg>